<?xml version="1.0" standalone="no"?>
<!DOCTYPE svg PUBLIC "-//W3C//DTD SVG 20010904//EN"
 "http://www.w3.org/TR/2001/REC-SVG-20010904/DTD/svg10.dtd">
<svg version="1.0" xmlns="http://www.w3.org/2000/svg"
 width="700.000000pt" height="700.000000pt" viewBox="0 0 700.000000 700.000000"
 preserveAspectRatio="xMidYMid meet">
<metadata>
Created by potrace 1.14, written by Peter Selinger 2001-2017
</metadata>
<g transform="translate(0.000000,700.000000) scale(0.100000,-0.100000)"
fill="#000000" stroke="none">
<path d="M2879 6996 c-2 -2 -40 -6 -84 -10 -482 -40 -975 -211 -1400 -485 -67
-43 -157 -108 -200 -143 -11 -9 -51 -42 -90 -73 -211 -171 -451 -441 -617
-695 -48 -74 -171 -297 -188 -340 -7 -19 -17 -39 -21 -45 -26 -37 -160 -405
-173 -478 -2 -15 -7 -30 -9 -34 -8 -13 -50 -221 -63 -312 -4 -25 -8 -55 -10
-65 -28 -154 -27 -1490 1 -1635 2 -10 6 -34 8 -52 10 -64 21 -134 22 -139 1
-3 7 -32 14 -65 31 -143 112 -415 131 -440 4 -5 13 -28 20 -50 7 -22 26 -67
41 -99 16 -33 29 -62 29 -66 0 -13 133 -256 183 -334 145 -229 338 -458 538
-641 229 -209 521 -399 819 -532 125 -56 347 -134 446 -158 67 -16 245 -54
274 -59 19 -3 44 -7 55 -10 11 -2 49 -7 85 -11 36 -4 79 -9 95 -12 17 -4 320
-7 675 -9 615 -2 785 3 917 30 16 3 47 8 71 11 122 17 364 81 527 140 268 97
649 305 822 450 7 5 24 19 38 30 316 244 620 611 810 979 129 247 202 443 274
731 20 80 46 226 56 311 3 27 8 65 12 84 9 56 12 1296 3 1395 -23 251 -45 371
-106 593 -213 768 -725 1426 -1423 1831 -128 75 -431 218 -431 204 0 -3 -6 -1
-12 5 -11 8 -202 73 -258 88 -95 24 -141 35 -170 40 -19 3 -37 7 -40 9 -9 6
-178 33 -245 41 -33 3 -73 9 -90 12 -32 6 -1330 14 -1336 8z"/>
</g>
</svg>
