<svg width="16" height="16" viewBox="0 0 16 16" fill="none" xmlns="http://www.w3.org/2000/svg">
<g clip-path="url(#clip0_629_222)">
<path d="M2.15506 9.18042C0.966781 9.18042 0 10.1472 0 11.3355V13.8448C0 15.0331 0.966781 15.9999 2.15509 15.9999C3.34341 15.9999 4.31016 15.0331 4.31016 13.8448V11.3355C4.31016 10.1472 3.34337 9.18042 2.15506 9.18042ZM3.06013 13.8448C3.06013 14.3439 2.65412 14.7499 2.15506 14.7499C1.65603 14.7499 1.25 14.3439 1.25 13.8448V11.3355C1.25 10.8364 1.65603 10.4304 2.15509 10.4304C2.65416 10.4304 3.06016 10.8365 3.06013 11.3355V13.8448Z" fill="#6A7A99"/>
<path d="M7.99989 0C6.81158 0 5.8448 0.966781 5.8448 2.15509V13.8449C5.8448 15.0332 6.81158 16 7.99989 16C9.1882 16 10.155 15.0332 10.155 13.8449V2.15509C10.155 0.966781 9.1882 0 7.99989 0ZM8.90498 13.8449C8.90498 14.344 8.49895 14.75 7.99989 14.75C7.50083 14.75 7.0948 14.344 7.0948 13.8449V2.15509C7.0948 1.656 7.50083 1.25 7.99989 1.25C8.49895 1.25 8.90498 1.656 8.90498 2.15509V13.8449Z" fill="#6A7A99"/>
<path d="M13.8447 4.59033C12.6564 4.59033 11.6897 5.55711 11.6897 6.74543V13.845C11.6897 15.0333 12.6564 16.0001 13.8448 16.0001C15.033 16.0001 15.9998 15.0333 15.9998 13.845V6.74543C15.9998 5.55711 15.033 4.59033 13.8447 4.59033ZM14.7498 13.845C14.7498 14.3441 14.3438 14.7501 13.8447 14.7501C13.3457 14.7501 12.9397 14.3441 12.9397 13.845V6.74543C12.9397 6.24633 13.3457 5.84033 13.8448 5.84033C14.3438 5.84033 14.7498 6.24633 14.7498 6.74543V13.845Z" fill="#6A7A99"/>
</g>
<defs>
<clipPath id="clip0_629_222">
<rect width="16" height="16" fill="white"/>
</clipPath>
</defs>
</svg>
