<svg width="78" height="11" viewBox="0 0 78 11" fill="none" xmlns="http://www.w3.org/2000/svg">
<path d="M4.46355 1.18185L3.24299 3.76746L0.512158 4.18343C0.0224388 4.25764 -0.173823 4.88842 0.181317 5.2497L2.15701 7.26117L1.68973 10.1026C1.60561 10.6162 2.12337 11.0009 2.55701 10.7607L5 9.41911L7.44299 10.7607C7.87663 10.999 8.39439 10.6162 8.31028 10.1026L7.84299 7.26117L9.81868 5.2497C10.1738 4.88842 9.97756 4.25764 9.48784 4.18343L6.75701 3.76746L5.53645 1.18185C5.31776 0.720965 4.68411 0.715106 4.46355 1.18185Z" fill="#F2B069"/>
<path d="M21.4636 1.18185L20.243 3.76746L17.5122 4.18343C17.0224 4.25764 16.8262 4.88842 17.1813 5.2497L19.157 7.26117L18.6897 10.1026C18.6056 10.6162 19.1234 11.0009 19.557 10.7607L22 9.41911L24.443 10.7607C24.8766 10.999 25.3944 10.6162 25.3103 10.1026L24.843 7.26117L26.8187 5.2497C27.1738 4.88842 26.9776 4.25764 26.4878 4.18343L23.757 3.76746L22.5364 1.18185C22.3178 0.720965 21.6841 0.715106 21.4636 1.18185Z" fill="#F2B069"/>
<path d="M38.4636 1.18185L37.243 3.76746L34.5122 4.18343C34.0224 4.25764 33.8262 4.88842 34.1813 5.2497L36.157 7.26117L35.6897 10.1026C35.6056 10.6162 36.1234 11.0009 36.557 10.7607L39 9.41911L41.443 10.7607C41.8766 10.999 42.3944 10.6162 42.3103 10.1026L41.843 7.26117L43.8187 5.2497C44.1738 4.88842 43.9776 4.25764 43.4878 4.18343L40.757 3.76746L39.5364 1.18185C39.3178 0.720965 38.6841 0.715106 38.4636 1.18185Z" fill="#F2B069"/>
<path d="M55.4636 1.18185L54.243 3.76746L51.5122 4.18343C51.0224 4.25764 50.8262 4.88842 51.1813 5.2497L53.157 7.26117L52.6897 10.1026C52.6056 10.6162 53.1234 11.0009 53.557 10.7607L56 9.41911L58.443 10.7607C58.8766 10.999 59.3944 10.6162 59.3103 10.1026L58.843 7.26117L60.8187 5.2497C61.1738 4.88842 60.9776 4.25764 60.4878 4.18343L57.757 3.76746L56.5364 1.18185C56.3178 0.720965 55.6841 0.715106 55.4636 1.18185Z" fill="#F2B069"/>
<path d="M72.4636 1.18185L71.243 3.76746L68.5122 4.18343C68.0224 4.25764 67.8262 4.88842 68.1813 5.2497L70.157 7.26117L69.6897 10.1026C69.6056 10.6162 70.1234 11.0009 70.557 10.7607L73 9.41911L75.443 10.7607C75.8766 10.999 76.3944 10.6162 76.3103 10.1026L75.843 7.26117L77.8187 5.2497C78.1738 4.88842 77.9776 4.25764 77.4878 4.18343L74.757 3.76746L73.5364 1.18185C73.3178 0.720965 72.6841 0.715106 72.4636 1.18185Z" fill="#F2B069"/>
</svg>
